<svg xmlns="http://www.w3.org/2000/svg" viewBox="0 0 300.24 186.72"><path d="M256.981,256.81a1.449,1.449,0,0,0,.248.047l7.757-18.271a3.95,3.95,0,0,0,.325-.936,2.514,2.514,0,0,0,.035-.936,1.482,1.482,0,0,0-.36-.756,1.2,1.2,0,0,0-.936-.324H253.035a3.71,3.71,0,0,1-.771-.083c-.624,1.509-1.234,3.023-1.807,4.551-1.642,4.383-1.657,8.836.992,13C252.756,255.15,254.789,256.094,256.981,256.81Z" transform="translate(-238.251 -217.198)"/><path d="M538.093,290.324a14.1,14.1,0,0,0-3-7.6,12.989,12.989,0,0,0-7.927-4.8,40.55,40.55,0,0,0-8.58-.76h-1.238a5.925,5.925,0,0,1,1.472,1.812,7.192,7.192,0,0,1,.792,3.239,9.145,9.145,0,0,1-.684,3.6l-3.1,7.2a26.363,26.363,0,0,1-1.512,2.844,21.252,21.252,0,0,1-2.16,2.952,14.3,14.3,0,0,1-2.7,2.412,7.086,7.086,0,0,1-3.061,1.224l4.393,16.631a5.609,5.609,0,0,1-1.477,2.088,2.851,2.851,0,0,1-1.836.864H487.9a2.249,2.249,0,0,1-1.8-1.044,6.79,6.79,0,0,1-1.08-1.908l-4.752-16.847a4.43,4.43,0,0,1,.18-1.656,12.017,12.017,0,0,1,.539-1.512,7.7,7.7,0,0,1,1.477-2.376q.971-1.081,2.052-2.088t2.016-1.944a6.63,6.63,0,0,0,1.367-1.872l1.153-2.737a2.781,2.781,0,0,0,.216-2.195,1.507,1.507,0,0,0-1.584-.973h-1.3a1.885,1.885,0,0,0-1.44.469,7.153,7.153,0,0,0-1.008,1.691l-13.608,32.04a5.618,5.618,0,0,1-1.476,2.088,2.856,2.856,0,0,1-1.836.864H442.681a1.035,1.035,0,0,1-1.152-.972,3.612,3.612,0,0,1,.287-1.98l17.208-40.391a5.735,5.735,0,0,1,.45-.826,33.462,33.462,0,0,0-6.864-.692c-.6-.011-1.494.338-1.741-.286-.188-.473.661-.9,1.063-1.327a23.29,23.29,0,0,0,4.01-5.95c1.952-4.1,4.124-8.151,4.515-12.812a16.2,16.2,0,0,0,.1-1.673,1.954,1.954,0,0,1,.61-1.5,26.757,26.757,0,0,0,5.179-8.156c1.157-2.593,2.157-5.258,3.385-7.815a21.5,21.5,0,0,0,2.016-8.218,12.425,12.425,0,0,0-2.686-9.1,7.745,7.745,0,0,0-4.443-2.444q-1.822-.347-3.645-.7h-8.016a4.044,4.044,0,0,1-.338,1.66l-4.752,11.16a14.147,14.147,0,0,1-2.376,3.6,21.749,21.749,0,0,1-3.564,3.24,19.944,19.944,0,0,1-4.176,2.34,11.084,11.084,0,0,1-4.212.9H412.081a2.756,2.756,0,0,0-1.224.324,9.661,9.661,0,0,0-1.26.756,6.889,6.889,0,0,0-1.08.936,2.677,2.677,0,0,0-.612.936l-2.808,6.7a2.456,2.456,0,0,0-.108,2.195,1.711,1.711,0,0,0,1.692.973,3.986,3.986,0,0,0,2.34-.865,6.079,6.079,0,0,0,1.836-2.088l2.016-4.68a6.655,6.655,0,0,1,1.512-2.088,2.725,2.725,0,0,1,1.8-.863h24.336a1.037,1.037,0,0,1,1.152.971,3.61,3.61,0,0,1-.288,1.98l-2.88,6.7a14.617,14.617,0,0,1-2.34,3.6,20.608,20.608,0,0,1-3.528,3.24,19.919,19.919,0,0,1-4.176,2.34,11.084,11.084,0,0,1-4.212.9H381.337a6.379,6.379,0,0,1-3.456-.9,6.024,6.024,0,0,1-2.2-2.34,7.5,7.5,0,0,1-.828-3.24,8.043,8.043,0,0,1,.72-3.6l14.112-33.12a6.441,6.441,0,0,1,1.085-1.66h-5.01a3.741,3.741,0,0,1-.322,1.516l-17.208,40.392a6.7,6.7,0,0,1-1.368,1.98,2.717,2.717,0,0,1-1.944.972H340.586a1.074,1.074,0,0,1-1.116-.864,3.175,3.175,0,0,1,.252-2.088l4.824-11.3a1.254,1.254,0,0,0-.252-.719,1.115,1.115,0,0,0-.972-.361h-2.808a2.306,2.306,0,0,0-1.044.4,5.865,5.865,0,0,0-.828.684l-4.824,11.3a5.618,5.618,0,0,1-1.476,2.088,2.856,2.856,0,0,1-1.836.864H306.17a1.035,1.035,0,0,1-1.152-.972,3.6,3.6,0,0,1,.288-1.98l17.208-40.392a6.188,6.188,0,0,1,.953-1.516h-4.774a1.648,1.648,0,0,1-.139.652l-6.7,15.7a3.116,3.116,0,0,1-1.476,1.476,4.8,4.8,0,0,1-2.34.612h-11.16a2.693,2.693,0,0,0-2.124,1.08,8.728,8.728,0,0,0-1.259,1.872l-8.712,20.52a5.63,5.63,0,0,1-1.476,2.088,2.858,2.858,0,0,1-1.836.864H257.247q-.6,1.414-1.2,2.83a18.217,18.217,0,0,0-.788,12.428,8.63,8.63,0,0,0,1.4,2.822l.617-1.447a6.708,6.708,0,0,1,1.368-1.981,2.716,2.716,0,0,1,1.944-.971h24.337a1.074,1.074,0,0,1,1.115.864,3.182,3.182,0,0,1-.252,2.088l-7.56,17.712a2.461,2.461,0,0,0-.108,2.2,1.71,1.71,0,0,0,1.692.972,4.08,4.08,0,0,0,2.484-.972,6.057,6.057,0,0,0,1.837-2.2l7.559-17.712a5.607,5.607,0,0,1,1.476-2.088,2.858,2.858,0,0,1,1.836-.864h24.336a1.038,1.038,0,0,1,1.153.971,3.615,3.615,0,0,1-.289,1.981l-8.567,20.088a14.6,14.6,0,0,1-2.341,3.6,20.616,20.616,0,0,1-3.528,3.241,19.863,19.863,0,0,1-4.175,2.339,11.089,11.089,0,0,1-4.213.9h-5.471a13.393,13.393,0,0,0-1.692.792,2.367,2.367,0,0,0-.828,1.08l-3.6,8.352a5.607,5.607,0,0,1-1.476,2.088,2.853,2.853,0,0,1-1.836.864H258.146a1.035,1.035,0,0,1-1.151-.972,3.6,3.6,0,0,1,.287-1.98l3.6-8.352c.24-.528.276-.887.108-1.08a3.375,3.375,0,0,0-.971-.648l-.217-.144h-5.327a6.376,6.376,0,0,1-3.456-.9,6.024,6.024,0,0,1-2.2-2.339,7.021,7.021,0,0,1-.351-.793l-.52,1.338a19.873,19.873,0,0,0,1.951,18.922,11.712,11.712,0,0,0,4.546,3.615,2.077,2.077,0,0,1,1.19,2.387,14.063,14.063,0,0,0,1.461,7.986l.544-1.272a3.116,3.116,0,0,1,1.476-1.476,4.8,4.8,0,0,1,2.339-.612h42.3c.616-1.312,1.222-2.632,1.735-3.985.473-1.245,1.533-1.022,2.417-1.057.913-.036.789.87.875,1.447a10.854,10.854,0,0,0,1.431,4.039c.016.025.024.046.038.071a5.619,5.619,0,0,1,.739.384,6.051,6.051,0,0,1,2.195,2.341,7.179,7.179,0,0,1,.792,3.239,9.124,9.124,0,0,1-.684,3.6l-7.56,17.784a6.41,6.41,0,0,1-1.4,1.98,2.826,2.826,0,0,1-1.98.971H276.866a5.75,5.75,0,0,0-2.3.469,2.721,2.721,0,0,0-1.439,1.188q-.433,1.08.179,1.4a4.926,4.926,0,0,0,2.124.324H300.05a2.828,2.828,0,0,1,1.908.54,1.24,1.24,0,0,1,.181,1.548l-3.385,7.92a3.119,3.119,0,0,1-1.476,1.475,4.79,4.79,0,0,1-2.34.613H241.072c-.451,1.052-.9,2.105-1.361,3.153-.82,1.87-.836,3.9-1.46,5.8v2.4c.156.7.366,1.39.46,2.1a8.859,8.859,0,0,0,5.227,7.329,13.518,13.518,0,0,0,3.012.712c.621.138,1.24.281,1.861.422h55.92q1.752-.339,3.506-.678a2.279,2.279,0,0,0,.7-.135c2.08-1.228,4.1-.947,6.247-.05,1.3.542,2.822.4,4.188.863h46.08c.66-.143,1.314-.334,1.981-.419a19.88,19.88,0,0,0,8.222-2.71,1.356,1.356,0,0,1,1.665-.1,17.432,17.432,0,0,0,8.686,3.051,2.912,2.912,0,0,1,.566.182h46.08c.66-.143,1.314-.334,1.981-.419a19.88,19.88,0,0,0,8.222-2.71,1.356,1.356,0,0,1,1.665-.1,17.432,17.432,0,0,0,8.686,3.051,2.912,2.912,0,0,1,.566.182h46.08l2.932-.591c8.877-1.8,15.374-6.735,19.082-15,3.76-8.386,7.322-16.864,10.835-25.359a22.648,22.648,0,0,0,.6-15.953c-.948-2.933-2.568-5.615-5.525-7.117-.618-.314-.992-.682-.485-1.39,2.954-4.124,2.613-8.625,1.486-13.208-.391-1.591-.815-3.173-1.245-4.754a1.515,1.515,0,0,1,.342-1.64,34.761,34.761,0,0,0,6.151-9.523c.931-1.946,1.672-3.982,2.607-5.926,1.151-2.393,1.23-5.028,1.864-7.536v-3.6A15.736,15.736,0,0,1,538.093,290.324Zm-147.036-8.106a21.8,21.8,0,0,1,3.564-3.239,20.034,20.034,0,0,1,4.176-2.341,11.112,11.112,0,0,1,4.212-.9h42.912a6.4,6.4,0,0,1,3.456.9,6.054,6.054,0,0,1,2.2,2.341,7.179,7.179,0,0,1,.792,3.239,9.162,9.162,0,0,1-.683,3.6L437.5,319.082a6.7,6.7,0,0,1-1.368,1.98,2.717,2.717,0,0,1-1.944.972H409.849a1.074,1.074,0,0,1-1.116-.864,3.175,3.175,0,0,1,.252-2.088l3.168-7.416a2,2,0,0,0-.72-2.556,1.891,1.891,0,0,0-1.008-.324l3.888-9.143a3.917,3.917,0,0,0,2.376-.864,6.492,6.492,0,0,0,1.8-2.017l3.672-8.712a2.463,2.463,0,0,0,.108-2.195,1.712,1.712,0,0,0-1.692-.973,4.077,4.077,0,0,0-2.484.973,6.031,6.031,0,0,0-1.836,2.195l-13.176,31.032a5.607,5.607,0,0,1-1.476,2.088,2.856,2.856,0,0,1-1.836.864H375.433a1.035,1.035,0,0,1-1.152-.972,3.6,3.6,0,0,1,.288-1.98l14.184-33.263A12.594,12.594,0,0,1,391.057,282.218Zm-78.408,38.916a6.028,6.028,0,0,1-2.195-2.34,7.519,7.519,0,0,1-.829-3.24,8.044,8.044,0,0,1,.721-3.6l14.112-33.12a6.857,6.857,0,0,1,1.4-2.015,2.79,2.79,0,0,1,1.98-1.008h24.337a1.082,1.082,0,0,1,1.115.9,3.068,3.068,0,0,1-.323,2.124l-3.888,9.145a2.8,2.8,0,0,0,.071,2.088,1.609,1.609,0,0,0,1.584.864,3.984,3.984,0,0,0,2.341-.864,6.869,6.869,0,0,0,1.907-2.088l3.889-9.145a6.829,6.829,0,0,1,1.547-2.124,2.811,2.811,0,0,1,1.836-.9h24.336a1,1,0,0,1,1.116,1.008,3.978,3.978,0,0,1-.323,2.015L382.633,290a14.126,14.126,0,0,1-2.376,3.6,21.749,21.749,0,0,1-3.564,3.24,19.867,19.867,0,0,1-4.175,2.34,11.067,11.067,0,0,1-4.212.9H346.85a2.75,2.75,0,0,0-1.225.324,9.65,9.65,0,0,0-1.259.756,6.839,6.839,0,0,0-1.08.935,2.7,2.7,0,0,0-.613.937l-2.807,6.7a2.46,2.46,0,0,0-.109,2.195,1.712,1.712,0,0,0,1.693.973,3.979,3.979,0,0,0,2.34-.865,6.076,6.076,0,0,0,1.835-2.088l2.017-4.68a6.676,6.676,0,0,1,1.511-2.088,2.727,2.727,0,0,1,1.8-.863H375.29a1.035,1.035,0,0,1,1.151.972,3.608,3.608,0,0,1-.288,1.979l-2.88,6.7a14.612,14.612,0,0,1-2.339,3.6,20.615,20.615,0,0,1-3.529,3.24,19.894,19.894,0,0,1-4.176,2.34,11.075,11.075,0,0,1-4.211.9H316.105A6.381,6.381,0,0,1,312.649,321.134Zm54.4,54.395a20.651,20.651,0,0,1-3.528,3.241,19.914,19.914,0,0,1-4.176,2.339,11.067,11.067,0,0,1-4.212.9H333.674l3.888-9.144a3.922,3.922,0,0,0,2.376-.864,6.5,6.5,0,0,0,1.8-2.017l9.288-21.96a2.466,2.466,0,0,0,.108-2.195,1.714,1.714,0,0,0-1.692-.973,4.077,4.077,0,0,0-2.484.973,6.029,6.029,0,0,0-1.836,2.195L331.946,379.2a6.721,6.721,0,0,1-1.512,1.8,4.6,4.6,0,0,1-2.3,1.008H312.218a6.371,6.371,0,0,1-3.456-.9,6.021,6.021,0,0,1-2.2-2.339,7.509,7.509,0,0,1-.828-3.241,8.028,8.028,0,0,1,.72-3.6l11.16-26.136a12.607,12.607,0,0,1,2.3-3.6,21.8,21.8,0,0,1,3.564-3.239,20.008,20.008,0,0,1,4.176-2.341,11.1,11.1,0,0,1,4.212-.9h42.912a6.4,6.4,0,0,1,3.456.9,6.054,6.054,0,0,1,2.2,2.341,7.192,7.192,0,0,1,.792,3.239,9.16,9.16,0,0,1-.684,3.6l-11.16,26.136A14.594,14.594,0,0,1,367.046,375.529Zm67.247,0a20.651,20.651,0,0,1-3.528,3.241,19.914,19.914,0,0,1-4.176,2.339,11.067,11.067,0,0,1-4.212.9H400.921l3.888-9.144a3.917,3.917,0,0,0,2.376-.864,6.5,6.5,0,0,0,1.8-2.017l9.288-21.96a2.466,2.466,0,0,0,.108-2.195,1.714,1.714,0,0,0-1.692-.973,4.077,4.077,0,0,0-2.484.973,6.029,6.029,0,0,0-1.836,2.195L399.193,379.2a6.721,6.721,0,0,1-1.512,1.8,4.6,4.6,0,0,1-2.3,1.008H379.465a6.371,6.371,0,0,1-3.456-.9,6.021,6.021,0,0,1-2.2-2.339,7.509,7.509,0,0,1-.828-3.241,8.041,8.041,0,0,1,.72-3.6l11.16-26.136a12.607,12.607,0,0,1,2.3-3.6,21.8,21.8,0,0,1,3.564-3.239,20.008,20.008,0,0,1,4.176-2.341,11.108,11.108,0,0,1,4.212-.9h42.912a6.4,6.4,0,0,1,3.456.9,6.064,6.064,0,0,1,2.2,2.341,7.218,7.218,0,0,1,.792,3.239,9.161,9.161,0,0,1-.685,3.6l-11.16,26.136A14.594,14.594,0,0,1,434.293,375.529Zm80.748-29.735-11.16,26.136a14.623,14.623,0,0,1-2.34,3.6,20.651,20.651,0,0,1-3.528,3.241,19.914,19.914,0,0,1-4.176,2.339,11.067,11.067,0,0,1-4.212.9H468.169l3.888-9.144a3.922,3.922,0,0,0,2.376-.864,6.489,6.489,0,0,0,1.8-2.017l9.289-21.96a2.469,2.469,0,0,0,.108-2.195,1.714,1.714,0,0,0-1.692-.973,4.077,4.077,0,0,0-2.484.973,6.042,6.042,0,0,0-1.837,2.195L466.44,379.2a6.7,6.7,0,0,1-1.511,1.8,4.6,4.6,0,0,1-2.3,1.008H446.713a6.368,6.368,0,0,1-3.456-.9,6.014,6.014,0,0,1-2.2-2.339,7.524,7.524,0,0,1-.829-3.241,8.042,8.042,0,0,1,.721-3.6l11.159-26.136a12.634,12.634,0,0,1,2.3-3.6,21.831,21.831,0,0,1,3.563-3.239,20.059,20.059,0,0,1,4.176-2.341,11.113,11.113,0,0,1,4.213-.9H509.28a6.4,6.4,0,0,1,3.456.9,6.057,6.057,0,0,1,2.2,2.341,7.192,7.192,0,0,1,.792,3.239A9.16,9.16,0,0,1,515.041,345.794Z" transform="translate(-238.251 -217.198)"/><path d="M347.354,231.242h2.808a2.7,2.7,0,0,0,1.872-1.08l4.9-11.448a5.647,5.647,0,0,1,.926-1.516h-6.5a3.824,3.824,0,0,1-.327,1.516l-4.9,11.448Q345.985,231.242,347.354,231.242Z" transform="translate(-238.251 -217.198)"/><path d="M252.98,354.832c.226-.178.433-.372.666-.542a19.984,19.984,0,0,1,4.176-2.34,11.115,11.115,0,0,1,4.213-.9H280.9a2.96,2.96,0,0,0,2.3-1.512q.575-1.3-.073-1.513a7.62,7.62,0,0,0-2.16-.215H256.346a4.239,4.239,0,0,1-.753-.07c-.7,1.649-1.325,3.329-1.99,4.986A13.211,13.211,0,0,0,252.98,354.832Z" transform="translate(-238.251 -217.198)"/><path d="M415.969,230.955a3.979,3.979,0,0,0,2.34-.865A6.873,6.873,0,0,0,420.217,228l3.888-9.144a6.836,6.836,0,0,1,1.135-1.66H418.6a3.548,3.548,0,0,1-.4,1.66L414.313,228a2.794,2.794,0,0,0,.072,2.088A1.608,1.608,0,0,0,415.969,230.955Z" transform="translate(-238.251 -217.198)"/></svg>